-
 
http://www.Speed. Cd       the fast  and The Hottest Private Tracker on the net 
http://www.Speed. Cd

Please Seed back to make the speed Faster!!
 ............ NFO .............
-
 
http://www.Speed. Cd[center][IMG]http://lookpic.com/O/i2/611/Ucnmnk6d.jpeg[/IMG][/center]
[center][img]http://lookpic.com/O/i2/93/XlSFcOr9.jpeg[/img][/center] 
http://www.imdb.com/title/tt1694020/

Source: Sparks 720p thx:)

The.Guilt.Trip.2012.BRRip.X264.AC3-THC

Format                                   : MPEG-4
Format profile                           : Base Media
Codec ID                                 : isom
File size                                : 1.39 GiB
Duration                                 : 1h 35mn
Overall bit rate mode                    : Variable
Overall bit rate                         : 2 088 Kbps
Encoded date                             : UTC 2013-04-17 02:33:14
Tagged date                              : UTC 2013-04-17 02:33:14

Video
ID                                       : 1
Format                                   : AVC
Format/Info                              : Advanced Video Codec
Format profile                           : High@L4.1
Format settings, CABAC                   : Yes
Format settings, ReFrames                : 5 frames
Codec ID                                 : avc1
Codec ID/Info                            : Advanced Video Coding
Duration                                 : 1h 35mn
Bit rate mode                            : Variable
Bit rate                                 : 1 699 Kbps
Maximum bit rate                         : 40.0 Mbps
Width                                    : 720 pixels
Height                                   : 304 pixels
Display aspect ratio                     : 2.35:1
Frame rate mode                          : Constant
Frame rate                               : 23.976 fps
Color space                              : YUV
Chroma subsampling                       : 4:2:0
Bit depth                                : 8 bits
Scan type                                : Progressive
Bits/(Pixel*Frame)                       : 0.324
Stream size                              : 1.14 GiB (81%)
Writing library                          : x264 core 130 r2273 b3065e6
Encoded date                             : UTC 2013-04-17 02:33:14
Tagged date                              : UTC 2013-04-17 02:33:45

Audio
ID                                       : 2
Format                                   : AC-3
Format/Info                              : Audio Coding 3
Mode extension                           : CM (complete main)
Format settings, Endianness              : Big
Codec ID                                 : ac-3
Duration                                 : 1h 35mn
Bit rate mode                            : Constant
Bit rate                                 : 384 Kbps
Channel(s)                               : 6 channels
Channel positions                        : Front: L C R, Side: L R, LFE
Sampling rate                            : 48.0 KHz
Bit depth                                : 16 bits
Compression mode                         : Lossy
Stream size                              : 263 MiB (18%)
Encoded date                             : UTC 2013-04-17 02:33:43
Tagged date                              : UTC 2013-04-17 02:33:45


[center][img]http://lookpic.com/O/i2/654/8EPcuvv.png[/img][/center]
[center][img]http://lookpic.com/O/i2/1533/Sf5POFO.png[/img][/center]
[center][img]http://lookpic.com/O/i2/234/0DwIvzx3.png[/img][/center]
[center][img]http://lookpic.com/O/i2/336/vV4SJlKH.png[/img][/center]